<?xml version="1.0" standalone="no"?>
<!DOCTYPE svg PUBLIC "-//W3C//DTD SVG 20010904//EN"
 "http://www.w3.org/TR/2001/REC-SVG-20010904/DTD/svg10.dtd">
<svg version="1.0" xmlns="http://www.w3.org/2000/svg"
 width="700.000000pt" height="700.000000pt" viewBox="0 0 700.000000 700.000000"
 preserveAspectRatio="xMidYMid meet">
<metadata>
Created by potrace 1.11, written by Peter Selinger 2001-2013
</metadata>
<g transform="translate(0.000000,700.000000) scale(0.100000,-0.100000)"
fill="#000000" stroke="none">
<path d="M735 6984 c-224 -49 -411 -168 -542 -344 -79 -105 -140 -254 -161
-392 -11 -72 -12 -5404 -1 -5490 25 -193 113 -365 259 -508 129 -126 299 -213
470 -239 56 -9 763 -11 2805 -9 l2730 3 77 22 c275 78 494 279 595 542 l32 86
1 803 0 802 -167 0 c-363 -1 -1550 9 -1583 13 -19 3 -78 8 -130 11 -192 14
-358 38 -566 83 l-122 26 -79 -80 c-184 -183 -452 -311 -733 -350 -74 -10
-318 -10 -402 0 -158 19 -381 88 -539 168 -398 199 -703 576 -779 961 -55 279
55 572 264 706 22 14 43 27 45 28 1 2 -4 24 -13 51 -70 211 -52 434 51 623
191 354 562 516 970 425 48 -11 171 -49 208 -65 l43 -18 33 35 c53 55 118 98
199 133 152 65 296 40 400 -70 117 -124 186 -369 189 -671 l1 -66 88 24 c105
29 272 40 356 24 117 -22 214 -86 277 -184 68 -105 91 -183 91 -312 -1 -232
-132 -499 -364 -739 -43 -45 -78 -88 -78 -97 0 -39 -53 -218 -85 -287 -20 -41
-34 -76 -32 -78 1 -2 17 -6 35 -9 18 -3 63 -12 100 -19 37 -8 105 -19 152 -26
47 -6 99 -12 115 -15 17 -2 62 -7 100 -10 39 -3 90 -8 115 -10 136 -14 350
-18 1058 -19 l782 -2 0 1944 0 1943 -26 77 c-45 134 -133 268 -244 369 -42 37
-181 133 -194 133 -4 0 -25 9 -49 20 -23 10 -76 29 -117 42 l-75 23 -2750 1
c-2239 1 -2761 -1 -2810 -12z"/>
<path d="M3812 4854 c-51 -13 -162 -76 -162 -91 0 -5 40 -33 87 -63 88 -55
221 -157 297 -228 61 -57 64 -57 59 -14 -14 120 -50 239 -95 314 -48 78 -103
103 -186 82z"/>
<path d="M2860 4755 c-131 -27 -234 -82 -322 -172 -110 -112 -161 -202 -188
-333 -20 -100 -17 -174 12 -282 l20 -78 42 8 c98 17 359 -8 390 -39 6 -5 17
-9 25 -9 30 0 223 -102 331 -175 72 -49 116 -72 124 -67 6 5 51 41 99 80 48
40 108 85 132 102 l44 30 -30 52 c-69 117 -149 321 -164 414 -3 22 -9 62 -13
89 -11 67 -5 186 12 251 l14 52 -57 21 c-67 23 -121 40 -147 45 -82 15 -119
19 -189 21 -44 0 -105 -4 -135 -10z"/>
<path d="M3544 4534 c-17 -142 29 -332 127 -514 22 -41 44 -79 49 -84 4 -4 43
13 86 39 43 26 126 72 186 102 l109 54 -30 37 c-31 39 -190 194 -257 250 -49
41 -242 172 -254 172 -5 0 -12 -25 -16 -56z"/>
<path d="M4545 4073 c-112 -13 -152 -31 -126 -58 25 -28 131 -238 165 -328 47
-124 85 -294 88 -394 2 -72 12 -70 71 13 118 166 171 307 172 454 0 88 -3 101
-33 162 -37 76 -83 119 -145 138 -42 12 -136 19 -192 13z"/>
<path d="M4030 3892 c-146 -79 -200 -114 -192 -127 18 -33 165 -195 172 -190
4 3 10 17 13 32 2 16 17 86 31 157 15 71 25 135 24 141 -2 7 -20 2 -48 -13z"/>
<path d="M4259 3885 c0 -11 -2 -28 -4 -37 -2 -9 -6 -34 -9 -55 -4 -31 -22
-118 -41 -203 -2 -8 -13 -49 -24 -90 l-21 -75 22 -18 c13 -10 34 -28 48 -40
67 -59 251 -187 260 -182 6 3 8 16 5 28 -2 12 -7 52 -9 88 -8 94 -30 191 -67
294 -33 93 -120 269 -145 295 -12 12 -14 12 -15 -5z"/>
<path d="M2497 3720 l-28 -5 52 -75 c61 -87 255 -284 347 -353 l64 -47 26 33
c15 17 62 68 104 112 61 63 74 83 65 93 -33 40 -236 157 -338 196 -94 35 -235
58 -292 46z"/>
<path d="M3575 3601 c-49 -38 -106 -82 -125 -99 l-34 -29 53 -59 c29 -32 110
-134 179 -226 69 -92 128 -168 131 -168 10 0 91 157 131 255 l37 91 -96 100
c-53 55 -114 123 -136 152 -21 29 -42 52 -45 52 -3 0 -45 -31 -95 -69z"/>
<path d="M2250 3633 c-72 -56 -118 -119 -151 -208 -18 -48 -23 -82 -23 -170
-1 -125 4 -156 39 -256 103 -295 365 -572 685 -723 142 -67 316 -118 452 -132
366 -38 699 56 936 266 l51 44 -111 53 c-99 47 -224 124 -278 171 -41 35 -67
27 -140 -42 -168 -158 -335 -229 -540 -229 -122 0 -201 14 -285 53 -78 35
-128 83 -159 150 -52 117 -33 249 60 419 19 35 34 65 32 66 -2 1 -39 31 -83
66 -162 128 -305 281 -399 427 -26 39 -48 72 -49 72 -1 0 -18 -12 -37 -27z"/>
<path d="M3190 3259 c-47 -50 -90 -97 -97 -104 -9 -9 3 -20 51 -48 91 -52 247
-120 361 -157 55 -18 104 -35 109 -38 14 -8 0 12 -120 173 -61 83 -136 176
-165 208 l-54 58 -85 -92z"/>
<path d="M4052 3141 c-23 -53 -64 -134 -92 -180 -27 -46 -50 -86 -50 -88 0 -2
39 -3 88 -2 84 2 242 28 279 47 10 5 45 22 77 39 33 16 61 33 63 38 1 6 -24
27 -57 49 -34 21 -107 73 -164 116 l-102 77 -42 -96z"/>
<path d="M2929 2906 c-44 -91 -58 -169 -40 -214 26 -61 132 -102 266 -102 87
-1 96 1 172 23 71 21 222 107 223 127 0 3 -55 23 -122 45 -70 22 -194 75 -288
122 -91 46 -166 83 -168 83 -2 0 -21 -38 -43 -84z"/>
<path d="M4385 2766 c-44 -20 -119 -42 -209 -61 l-29 -6 24 -13 c13 -7 59 -27
103 -45 85 -35 81 -36 111 21 15 27 57 129 52 127 -1 0 -24 -11 -52 -23z"/>
</g>
</svg>
